<?xml version="1.0" encoding="UTF-8"?>
<svg id="Calque_2" data-name="Calque 2" xmlns="http://www.w3.org/2000/svg" xmlns:xlink="http://www.w3.org/1999/xlink" viewBox="0 0 2000 2000">
  <defs>
    <style>
      .cls-1, .cls-2 {
        fill: #192340;
      }

      .cls-3 {
        clip-path: url(#clippath-1);
      }

      .cls-2, .cls-4, .cls-5 {
        stroke-width: 0px;
      }

      .cls-6 {
        clip-path: url(#clippath);
      }

      .cls-4 {
        fill: #f15a24;
      }

      .cls-5 {
        fill: #f2f2f2;
      }
    </style>
    <clipPath id="clippath">
      <circle class="cls-2" cx="1287" cy="909" r="143"/>
    </clipPath>
    <clipPath id="clippath-1">
      <circle class="cls-2" cx="713" cy="909" r="143"/>
    </clipPath>
  </defs>
  <g>
    <path class="cls-4" d="M1287,737.25c-113.17,0-209.63,71.48-246.73,171.75,37.1,100.27,133.56,171.75,246.73,171.75s209.63-71.48,246.73-171.75c-37.1-100.27-133.56-171.75-246.73-171.75Z"/>
    <g>
      <circle class="cls-1" cx="1287" cy="909" r="143"/>
      <g class="cls-6">
        <path class="cls-5" d="M1093.25,964.95c3.99,0,7.98-.06,11.97,0,1.58.02,2.31-.55,2.16-2.16-.04-.47.08-.97-.02-1.42-1.18-5.15,1.89-8.38,5.2-11.46.56-.53,1.49-.93,2.25-.94,11.29-.06,22.58-.04,34.03-.04.14,1.23.25,2.13.38,3.25,3.22,0,6.42.1,9.6-.11.49-.03,1.24-1.48,1.27-2.3.15-3.79,0-7.6.16-11.4.05-1.13.41-2.66,1.2-3.27,4.38-3.37,5.72-7.74,4.94-13-.08-.55,0-1.14.04-1.71.01-.18.1-.35.23-.73h30.57c0,4.09,0,8.14,0,12.19,0,1.52.18,3.07-.03,4.56-.72,5.04.56,8.78,5.78,10.7.89.33,1.71,2.18,1.73,3.34.14,8.93.08,17.86.08,26.79,0,.85-.11,1.75.12,2.55.13.46.84,1.04,1.29,1.04.45,0,1.17-.57,1.3-1.03.23-.79.12-1.69.12-2.55.02-12.54.03-25.08.06-37.62.01-4.29,2.02-5.99,6.34-5.94,9.69.11,19.38.05,29.07.06,1.21,0,2.41,0,4.06,0,0,6.32.12,12.28-.06,18.23-.08,2.59.67,3.4,3.32,3.36,9.4-.16,18.81-.06,28.21-.06,1.12,0,2.24,0,3.8,0,0,1.49,0,2.69,0,3.89,0,9.02.04,18.05-.04,27.07-.02,1.98.68,3.21,2.95,4.04,0-1.22,0-2.21,0-3.19,0-8.84.09-17.67-.03-26.5-.03-2.33.78-2.93,2.96-2.85,3.98.14,7.98.19,11.97,0,2.67-.13,3.65.61,3.58,3.46-.19,7.79-.05,15.58-.06,23.37,0,5.36.22,5.55,6.1,4.4,0-1.02,0-2.12,0-3.23,0-13.49.01-26.98.03-40.47,0-4.92,3.93-8.85,8.81-8.85,5.3,0,10.61,0,16.22,0v-16.75h21.2c.19-1.46.34-2.64.52-4.06.89-.05,1.79-.11,3.03-.18.11,1.62.21,3.09.34,4.92h8.47v21.76h8.74c0,1.45,0,2.47,0,3.48.02,10.83.01,21.66.1,32.49,0,.82.66,1.63,1.02,2.45.3-.79.84-1.57.86-2.37.08-4.75.17-9.5,0-14.25-.09-2.56.82-3.37,3.28-3.15,2.17.19,4.37.05,6.55.04,6.78-.04,13.71.9,20.05-3.51.21,1.44.34,2.33.51,3.53,1.55,0,3.02,0,4.5,0,9.78,0,19.57.05,29.35-.04,2.11-.02,2.81.61,2.76,2.75-.13,5.4-.04,10.81-.04,16.49h7.24c0-1.1,0-2.2,0-3.31,0-14.54,0-29.07.04-43.61,0-1.58-.67-3.42,1.44-4.47.38-.19.33-1.4.34-2.14.04-3.7-.05-7.41.1-11.11.03-.75.93-2.1,1.45-2.11,9.38-.13,18.76-.09,28.58-.09,0,3.47,0,6.66,0,9.86,0,4.37.08,8.74-.03,13.11-.05,1.95.56,2.71,2.58,2.63,3.5-.13,7.01-.04,10.37-.04.27.36.45.49.48.66q.57,3.83,4.65,3.84c3.13.02,6.27.05,9.4.08v107.71h-419.5v-86.05Z"/>
      </g>
    </g>
    <path class="cls-4" d="M713,737.25c-113.17,0-209.63,71.48-246.73,171.75,37.1,100.27,133.56,171.75,246.73,171.75s209.63-71.48,246.73-171.75c-37.1-100.27-133.56-171.75-246.73-171.75Z"/>
    <g>
      <circle class="cls-1" cx="713" cy="909" r="143"/>
      <g class="cls-3">
        <path class="cls-5" d="M519.25,964.95c3.99,0,7.98-.06,11.97,0,1.58.02,2.31-.55,2.16-2.16-.04-.47.08-.97-.02-1.42-1.18-5.15,1.89-8.38,5.2-11.46.56-.53,1.49-.93,2.25-.94,11.29-.06,22.58-.04,34.03-.04.14,1.23.25,2.13.38,3.25,3.22,0,6.42.1,9.6-.11.49-.03,1.24-1.48,1.27-2.3.15-3.79,0-7.6.16-11.4.05-1.13.41-2.66,1.2-3.27,4.38-3.37,5.72-7.74,4.94-13-.08-.55,0-1.14.04-1.71.01-.18.1-.35.23-.73h30.57c0,4.09,0,8.14,0,12.19,0,1.52.18,3.07-.03,4.56-.72,5.04.56,8.78,5.78,10.7.89.33,1.71,2.18,1.73,3.34.14,8.93.08,17.86.08,26.79,0,.85-.11,1.75.12,2.55.13.46.84,1.04,1.29,1.04.45,0,1.17-.57,1.3-1.03.23-.79.12-1.69.12-2.55.02-12.54.03-25.08.06-37.62.01-4.29,2.02-5.99,6.34-5.94,9.69.11,19.38.05,29.07.06,1.21,0,2.41,0,4.06,0,0,6.32.12,12.28-.06,18.23-.08,2.59.67,3.4,3.32,3.36,9.4-.16,18.81-.06,28.21-.06,1.12,0,2.24,0,3.8,0,0,1.49,0,2.69,0,3.89,0,9.02.04,18.05-.04,27.07-.02,1.98.68,3.21,2.95,4.04,0-1.22,0-2.21,0-3.19,0-8.84.09-17.67-.03-26.5-.03-2.33.78-2.93,2.96-2.85,3.98.14,7.98.19,11.97,0,2.67-.13,3.65.61,3.58,3.46-.19,7.79-.05,15.58-.06,23.37,0,5.36.22,5.55,6.1,4.4,0-1.02,0-2.12,0-3.23,0-13.49.01-26.98.03-40.47,0-4.92,3.93-8.85,8.81-8.85,5.3,0,10.61,0,16.22,0v-16.75h21.2c.19-1.46.34-2.64.52-4.06.89-.05,1.79-.11,3.03-.18.11,1.62.21,3.09.34,4.92h8.47v21.76h8.74c0,1.45,0,2.47,0,3.48.02,10.83.01,21.66.1,32.49,0,.82.66,1.63,1.02,2.45.3-.79.84-1.57.86-2.37.08-4.75.17-9.5,0-14.25-.09-2.56.82-3.37,3.28-3.15,2.17.19,4.37.05,6.55.04,6.78-.04,13.71.9,20.05-3.51.21,1.44.34,2.33.51,3.53,1.55,0,3.02,0,4.5,0,9.78,0,19.57.05,29.35-.04,2.11-.02,2.81.61,2.76,2.75-.13,5.4-.04,10.81-.04,16.49h7.24c0-1.1,0-2.2,0-3.31,0-14.54,0-29.07.04-43.61,0-1.58-.67-3.42,1.44-4.47.38-.19.33-1.4.34-2.14.04-3.7-.05-7.41.1-11.11.03-.75.93-2.1,1.45-2.11,9.38-.13,18.76-.09,28.58-.09,0,3.47,0,6.66,0,9.86,0,4.37.08,8.74-.03,13.11-.05,1.95.56,2.71,2.58,2.63,3.5-.13,7.01-.04,10.37-.04.27.36.45.49.48.66q.57,3.83,4.65,3.84c3.13.02,6.27.05,9.4.08v107.71h-419.5v-86.05Z"/>
      </g>
    </g>
  </g>
  <g>
    <path class="cls-2" d="M520.54,1241.45l92.1,118.62h-56.37l-73.68-99.1h-22.84v99.1h-44.21v-230.99h44.21v95.42h22.84l73.31-95.42h53.42l-88.78,112.36Z"/>
    <path class="cls-2" d="M677.1,1129.09v230.99h-44.21v-230.99h44.21Z"/>
    <path class="cls-2" d="M915.45,1129.09v230.99h-43.1l-109.42-156.57v156.57h-41.63v-230.99h43.1l109.78,160.25v-160.25h41.26Z"/>
    <path class="cls-2" d="M985.08,1360.07h-46.42l88.42-230.99h45.68l86.94,230.99h-46.42l-16.58-47.16h-95.42l-16.21,47.16ZM1048.81,1171.45c-2.71,9.34-5.71,19.16-9.03,29.47-3.32,10.32-6.45,19.89-9.39,28.74l-16.21,46.79h69.63l-16.21-46.79c-2.71-7.86-5.77-17-9.21-27.45-3.44-10.44-6.63-20.69-9.58-30.76Z"/>
    <path class="cls-2" d="M1227.48,1281.24v78.84h-44.21v-230.99h81.42c34.13,0,58.51,5.77,73.13,17.31,14.61,11.55,21.92,30.82,21.92,57.84,0,19.4-4.24,35.06-12.71,46.97-8.47,11.92-21.31,20.2-38.5,24.87l58.21,84h-53.05l-51.94-78.84h-34.26ZM1314.79,1204.24c0-12.77-3.75-21.86-11.24-27.26-7.49-5.4-20.45-8.1-38.87-8.1h-37.21v75.52h37.21c18.42,0,31.37-3.07,38.87-9.21,7.49-6.14,11.24-16.45,11.24-30.95Z"/>
    <path class="cls-2" d="M1540.25,1265.39v-136.31h44.21v136.31c0,33.16-7.86,57.78-23.58,73.86-15.72,16.09-39.79,24.13-72.21,24.13s-57.35-7.74-72.57-23.21c-15.23-15.47-22.84-40.4-22.84-74.79v-136.31h44.21v136.31c0,21.62,3.68,36.41,11.05,44.39,7.37,7.98,20.75,11.97,40.16,11.97s33.16-4.05,40.52-12.16c7.37-8.1,11.05-22.84,11.05-44.21Z"/>
  </g>
</svg>