<?xml version="1.0" encoding="UTF-8"?>
<svg id="Calque_2" data-name="Calque 2" xmlns="http://www.w3.org/2000/svg" xmlns:xlink="http://www.w3.org/1999/xlink" viewBox="0 0 2000 2000">
  <defs>
    <style>
      .cls-1, .cls-2 {
        fill: #192340;
      }

      .cls-3 {
        clip-path: url(#clippath-1);
      }

      .cls-2, .cls-4, .cls-5 {
        stroke-width: 0px;
      }

      .cls-6 {
        clip-path: url(#clippath);
      }

      .cls-4 {
        fill: #f15a24;
      }

      .cls-5 {
        fill: #f2f2f2;
      }
    </style>
    <clipPath id="clippath">
      <circle class="cls-2" cx="773.93" cy="1000" r="97.41"/>
    </clipPath>
    <clipPath id="clippath-1">
      <circle class="cls-2" cx="382.9" cy="1000" r="97.41"/>
    </clipPath>
  </defs>
  <g>
    <path class="cls-4" d="M773.93,883c-77.09,0-142.81,48.69-168.08,117,25.27,68.31,90.99,117,168.08,117s142.81-48.69,168.08-117c-25.27-68.31-90.99-117-168.08-117Z"/>
    <g>
      <circle class="cls-1" cx="773.93" cy="1000" r="97.41"/>
      <g class="cls-6">
        <path class="cls-5" d="M641.94,1038.12c2.72,0,5.44-.04,8.15,0,1.08.02,1.58-.37,1.47-1.47-.03-.32.06-.66-.01-.97-.8-3.51,1.29-5.71,3.54-7.81.38-.36,1.01-.64,1.53-.64,7.69-.04,15.38-.03,23.18-.03.1.84.17,1.45.26,2.21,2.2,0,4.38.07,6.54-.07.34-.02.85-1.01.87-1.56.1-2.58,0-5.18.11-7.76.03-.77.28-1.81.82-2.23,2.98-2.29,3.9-5.27,3.36-8.86-.06-.38,0-.77.03-1.16,0-.12.07-.24.15-.5h20.83c0,2.79,0,5.55,0,8.3,0,1.04.12,2.09-.02,3.1-.49,3.43.38,5.98,3.94,7.29.61.22,1.17,1.49,1.18,2.28.1,6.08.05,12.17.06,18.25,0,.58-.08,1.19.08,1.73.09.31.57.71.88.71.31,0,.79-.39.88-.7.16-.54.08-1.15.08-1.73.01-8.54.02-17.09.04-25.63,0-2.92,1.38-4.08,4.32-4.05,6.6.07,13.2.03,19.8.04.82,0,1.64,0,2.77,0,0,4.3.08,8.36-.04,12.42-.05,1.76.45,2.32,2.26,2.29,6.4-.11,12.81-.04,19.22-.04.76,0,1.52,0,2.59,0,0,1.02,0,1.83,0,2.65,0,6.15.03,12.3-.03,18.44-.01,1.35.47,2.18,2.01,2.76,0-.83,0-1.5,0-2.17,0-6.02.06-12.04-.02-18.06-.02-1.59.53-2,2.01-1.94,2.71.1,5.44.13,8.15,0,1.82-.09,2.49.42,2.44,2.36-.13,5.3-.03,10.61-.04,15.92,0,3.65.15,3.78,4.15,3,0-.69,0-1.45,0-2.2,0-9.19,0-18.38.02-27.57,0-3.35,2.68-6.03,6-6.03,3.61,0,7.22,0,11.05,0v-11.41h14.44c.13-.99.23-1.8.36-2.77.6-.04,1.22-.07,2.06-.12.08,1.1.15,2.1.23,3.35h5.77v14.82h5.95c0,.99,0,1.68,0,2.37.01,7.38,0,14.76.07,22.13,0,.56.45,1.11.69,1.67.2-.54.58-1.07.58-1.61.06-3.23.12-6.47,0-9.71-.06-1.74.56-2.29,2.24-2.15,1.48.13,2.97.03,4.46.03,4.62-.03,9.34.61,13.66-2.39.14.98.23,1.59.35,2.4,1.05,0,2.06,0,3.06,0,6.67,0,13.33.04,20-.03,1.44-.01,1.91.42,1.88,1.87-.09,3.68-.03,7.37-.03,11.24h4.93c0-.75,0-1.5,0-2.25,0-9.9,0-19.8.03-29.7,0-1.07-.46-2.33.98-3.05.26-.13.23-.96.23-1.46.03-2.52-.04-5.05.07-7.57.02-.51.63-1.43.98-1.44,6.39-.09,12.78-.06,19.47-.06,0,2.36,0,4.54,0,6.71,0,2.98.05,5.96-.02,8.93-.03,1.33.38,1.84,1.76,1.79,2.39-.09,4.78-.03,7.06-.03.18.24.31.34.33.45q.39,2.61,3.17,2.62c2.13.01,4.27.04,6.4.05v73.37h-285.78v-58.62Z"/>
      </g>
    </g>
    <path class="cls-4" d="M382.9,883c-77.09,0-142.81,48.69-168.08,117,25.27,68.31,90.99,117,168.08,117s142.81-48.69,168.08-117c-25.27-68.31-90.99-117-168.08-117Z"/>
    <g>
      <circle class="cls-1" cx="382.9" cy="1000" r="97.41"/>
      <g class="cls-3">
        <path class="cls-5" d="M250.92,1038.12c2.72,0,5.44-.04,8.15,0,1.08.02,1.58-.37,1.47-1.47-.03-.32.06-.66-.01-.97-.8-3.51,1.29-5.71,3.54-7.81.38-.36,1.01-.64,1.53-.64,7.69-.04,15.38-.03,23.18-.03.1.84.17,1.45.26,2.21,2.2,0,4.38.07,6.54-.07.34-.02.85-1.01.87-1.56.1-2.58,0-5.18.11-7.76.03-.77.28-1.81.82-2.23,2.98-2.29,3.9-5.27,3.36-8.86-.06-.38,0-.77.03-1.16,0-.12.07-.24.15-.5h20.83c0,2.79,0,5.55,0,8.3,0,1.04.12,2.09-.02,3.1-.49,3.43.38,5.98,3.94,7.29.61.22,1.17,1.49,1.18,2.28.1,6.08.05,12.17.06,18.25,0,.58-.08,1.19.08,1.73.09.31.57.71.88.71.31,0,.79-.39.88-.7.16-.54.08-1.15.08-1.73.01-8.54.02-17.09.04-25.63,0-2.92,1.38-4.08,4.32-4.05,6.6.07,13.2.03,19.8.04.82,0,1.64,0,2.77,0,0,4.3.08,8.36-.04,12.42-.05,1.76.45,2.32,2.26,2.29,6.4-.11,12.81-.04,19.22-.04.76,0,1.52,0,2.59,0,0,1.02,0,1.83,0,2.65,0,6.15.03,12.3-.03,18.44-.01,1.35.47,2.18,2.01,2.76,0-.83,0-1.5,0-2.17,0-6.02.06-12.04-.02-18.06-.02-1.59.53-2,2.01-1.94,2.71.1,5.44.13,8.15,0,1.82-.09,2.49.42,2.44,2.36-.13,5.3-.03,10.61-.04,15.92,0,3.65.15,3.78,4.15,3,0-.69,0-1.45,0-2.2,0-9.19,0-18.38.02-27.57,0-3.35,2.68-6.03,6-6.03,3.61,0,7.22,0,11.05,0v-11.41h14.44c.13-.99.23-1.8.36-2.77.6-.04,1.22-.07,2.06-.12.08,1.1.15,2.1.23,3.35h5.77v14.82h5.95c0,.99,0,1.68,0,2.37.01,7.38,0,14.76.07,22.13,0,.56.45,1.11.69,1.67.2-.54.58-1.07.58-1.61.06-3.23.12-6.47,0-9.71-.06-1.74.56-2.29,2.24-2.15,1.48.13,2.97.03,4.46.03,4.62-.03,9.34.61,13.66-2.39.14.98.23,1.59.35,2.4,1.05,0,2.06,0,3.06,0,6.67,0,13.33.04,20-.03,1.44-.01,1.91.42,1.88,1.87-.09,3.68-.03,7.37-.03,11.24h4.93c0-.75,0-1.5,0-2.25,0-9.9,0-19.8.03-29.7,0-1.07-.46-2.33.98-3.05.26-.13.23-.96.23-1.46.03-2.52-.04-5.05.07-7.57.02-.51.63-1.43.98-1.44,6.39-.09,12.78-.06,19.47-.06,0,2.36,0,4.54,0,6.71,0,2.98.05,5.96-.02,8.93-.03,1.33.38,1.84,1.76,1.79,2.39-.09,4.78-.03,7.06-.03.18.24.31.34.33.45q.39,2.61,3.17,2.62c2.13.01,4.27.04,6.4.05v73.37H250.92v-58.62Z"/>
      </g>
    </g>
  </g>
  <g>
    <path class="cls-2" d="M1060.41,996.74l62.74,80.81h-38.4l-50.19-67.51h-15.56v67.51h-30.12v-157.35h30.12v65h15.56l49.94-65h36.39l-60.48,76.54Z"/>
    <path class="cls-2" d="M1167.06,920.19v157.35h-30.12v-157.35h30.12Z"/>
    <path class="cls-2" d="M1329.43,920.19v157.35h-29.36l-74.54-106.66v106.66h-28.36v-157.35h29.36l74.79,109.17v-109.17h28.11Z"/>
    <path class="cls-2" d="M1376.86,1077.55h-31.62l60.23-157.35h31.12l59.23,157.35h-31.62l-11.29-32.12h-65l-11.04,32.12ZM1420.28,949.05c-1.84,6.36-3.89,13.05-6.15,20.08-2.26,7.03-4.39,13.55-6.4,19.58l-11.04,31.87h47.43l-11.04-31.87c-1.84-5.35-3.93-11.58-6.27-18.7-2.35-7.11-4.52-14.09-6.53-20.96Z"/>
    <path class="cls-2" d="M1541.99,1023.84v53.71h-30.12v-157.35h55.46c23.25,0,39.86,3.93,49.82,11.79,9.95,7.87,14.93,21,14.93,39.4,0,13.22-2.89,23.88-8.66,32-5.77,8.12-14.52,13.76-26.23,16.94l39.65,57.22h-36.14l-35.39-53.71h-23.34ZM1601.47,971.39c0-8.7-2.55-14.89-7.65-18.57-5.11-3.68-13.93-5.52-26.48-5.52h-25.35v51.45h25.35c12.55,0,21.37-2.09,26.48-6.27,5.1-4.18,7.65-11.21,7.65-21.08Z"/>
    <path class="cls-2" d="M1755.06,1013.05v-92.86h30.12v92.86c0,22.59-5.36,39.36-16.06,50.32-10.71,10.96-27.1,16.44-49.19,16.44s-39.07-5.27-49.44-15.81c-10.38-10.54-15.56-27.52-15.56-50.95v-92.86h30.12v92.86c0,14.72,2.51,24.81,7.53,30.24,5.02,5.44,14.14,8.16,27.35,8.16s22.59-2.76,27.61-8.28c5.02-5.52,7.53-15.56,7.53-30.12Z"/>
  </g>
</svg>